<?xml version="1.0" encoding="utf-8"?>
<svg viewBox="0 0 500 500" xmlns="http://www.w3.org/2000/svg">
  <clipPath id="p.0">
    <path d="M -499.999 -500.002 L 1046.557 -500.002 L 1046.557 535.844 L -499.999 535.844 L -499.999 -500.002 Z" clip-rule="nonzero"/>
  </clipPath>
  <path fill="#ffffff" d="M 0 0 L 500 0 L 500 500 L 0 500 Z" fill-rule="evenodd" clip-path="url(#p.0)" style=""/>
  <clipPath id="clip-1">
    <path d="M 0 0 L 1213.378 0 L 1213.378 695.239 L 0 695.239 L 0 0 Z" clip-rule="nonzero"/>
  </clipPath>
  <g transform="matrix(1.349388, 0, 0, 1.349388, -542.670959, -429.538971)" style="">
    <path fill="#000000" d="M 438.266 480.529 L 452.001 480.529 C 454.719 480.529 456.745 480.644 458.079 480.873 C 459.422 481.092 460.62 481.56 461.672 482.279 C 462.725 482.998 463.6 483.956 464.297 485.154 C 465.006 486.352 465.36 487.69 465.36 489.17 C 465.36 490.784 464.928 492.263 464.063 493.607 C 463.198 494.951 462.021 495.956 460.532 496.623 C 462.626 497.237 464.235 498.279 465.36 499.748 C 466.485 501.217 467.047 502.94 467.047 504.92 C 467.047 506.482 466.683 508.003 465.954 509.482 C 465.235 510.961 464.245 512.144 462.985 513.029 C 461.725 513.904 460.172 514.446 458.329 514.654 C 457.172 514.779 454.386 514.857 449.969 514.888 L 438.266 514.888 L 438.266 480.529 Z M 445.204 486.248 L 445.204 494.185 L 449.751 494.185 C 452.459 494.185 454.141 494.149 454.797 494.076 C 455.985 493.93 456.917 493.519 457.594 492.842 C 458.271 492.164 458.61 491.269 458.61 490.154 C 458.61 489.092 458.318 488.232 457.735 487.576 C 457.152 486.909 456.282 486.503 455.126 486.357 C 454.438 486.284 452.459 486.248 449.188 486.248 L 445.204 486.248 Z M 445.204 499.904 L 445.204 509.092 L 451.626 509.092 C 454.126 509.092 455.714 509.024 456.391 508.888 C 457.422 508.701 458.261 508.243 458.907 507.513 C 459.553 506.784 459.876 505.81 459.876 504.592 C 459.876 503.56 459.626 502.685 459.126 501.967 C 458.626 501.248 457.902 500.727 456.954 500.404 C 456.016 500.071 453.969 499.904 450.813 499.904 L 445.204 499.904 Z M 472.868 480.529 L 479.805 480.529 L 479.805 499.138 C 479.805 502.086 479.889 503.998 480.055 504.873 C 480.357 506.279 481.066 507.409 482.18 508.263 C 483.295 509.118 484.821 509.545 486.758 509.545 C 488.727 509.545 490.212 509.144 491.212 508.342 C 492.212 507.529 492.81 506.539 493.008 505.373 C 493.217 504.196 493.321 502.248 493.321 499.529 L 493.321 480.529 L 500.258 480.529 L 500.258 498.576 C 500.258 502.701 500.071 505.618 499.696 507.326 C 499.321 509.024 498.628 510.461 497.618 511.638 C 496.618 512.805 495.274 513.737 493.587 514.435 C 491.899 515.133 489.696 515.482 486.977 515.482 C 483.696 515.482 481.206 515.102 479.508 514.341 C 477.81 513.581 476.467 512.597 475.477 511.388 C 474.498 510.17 473.852 508.899 473.54 507.576 C 473.092 505.607 472.868 502.701 472.868 498.857 L 472.868 480.529 Z M 507.36 514.888 L 507.36 480.529 L 514.297 480.529 L 514.297 514.888 L 507.36 514.888 Z M 521.102 514.888 L 521.102 480.81 L 528.04 480.81 L 528.04 509.092 L 545.29 509.092 L 545.29 514.888 L 521.102 514.888 Z M 550.204 480.529 L 562.891 480.529 C 565.745 480.529 567.922 480.748 569.422 481.185 C 571.443 481.779 573.172 482.836 574.61 484.357 C 576.047 485.868 577.141 487.722 577.891 489.92 C 578.641 492.107 579.016 494.81 579.016 498.029 C 579.016 500.862 578.662 503.3 577.954 505.342 C 577.1 507.842 575.876 509.868 574.282 511.42 C 573.074 512.586 571.449 513.498 569.407 514.154 C 567.876 514.644 565.829 514.888 563.266 514.888 L 550.204 514.888 L 550.204 480.529 Z M 557.141 486.342 L 557.141 509.092 L 562.329 509.092 C 564.266 509.092 565.662 508.982 566.516 508.763 C 567.641 508.482 568.574 508.008 569.313 507.342 C 570.063 506.664 570.672 505.56 571.141 504.029 C 571.61 502.487 571.844 500.388 571.844 497.732 C 571.844 495.076 571.61 493.039 571.141 491.623 C 570.672 490.196 570.016 489.086 569.172 488.295 C 568.329 487.493 567.256 486.951 565.954 486.67 C 564.985 486.451 563.089 486.342 560.266 486.342 L 557.141 486.342 Z" fill-rule="nonzero" clip-path="url(#clip-1)"/>
    <path fill="#000000" d="M 559.868 491.683 L 572.555 491.683 C 575.409 491.683 577.586 491.902 579.086 492.339 C 581.107 492.933 582.836 493.99 584.274 495.511 C 585.711 497.022 586.805 498.876 587.555 501.074 C 588.305 503.261 588.68 505.964 588.68 509.183 C 588.68 512.017 588.326 514.454 587.618 516.496 C 586.763 518.996 585.539 521.022 583.946 522.574 C 582.737 523.74 581.112 524.652 579.071 525.308 C 577.539 525.798 575.493 526.043 572.93 526.043 L 559.868 526.043 L 559.868 491.683 Z M 566.805 497.496 L 566.805 520.246 L 571.993 520.246 C 573.93 520.246 575.326 520.136 576.18 519.918 C 577.305 519.636 578.237 519.162 578.977 518.496 C 579.727 517.819 580.336 516.714 580.805 515.183 C 581.274 513.642 581.508 511.543 581.508 508.886 C 581.508 506.23 581.274 504.194 580.805 502.777 C 580.336 501.35 579.68 500.24 578.836 499.449 C 577.993 498.647 576.92 498.105 575.618 497.824 C 574.649 497.605 572.753 497.496 569.93 497.496 L 566.805 497.496 Z M 594.563 526.043 L 594.563 491.683 L 620.032 491.683 L 620.032 497.496 L 601.5 497.496 L 601.5 505.105 L 618.75 505.105 L 618.75 510.902 L 601.5 510.902 L 601.5 520.246 L 620.688 520.246 L 620.688 526.043 L 594.563 526.043 Z M 624.813 514.855 L 631.563 514.199 C 631.969 516.47 632.792 518.136 634.032 519.199 C 635.282 520.261 636.959 520.793 639.063 520.793 C 641.302 520.793 642.985 520.319 644.11 519.371 C 645.245 518.423 645.813 517.319 645.813 516.058 C 645.813 515.246 645.573 514.553 645.094 513.98 C 644.625 513.407 643.797 512.912 642.61 512.496 C 641.797 512.214 639.943 511.714 637.047 510.996 C 633.328 510.069 630.719 508.933 629.219 507.589 C 627.115 505.704 626.063 503.402 626.063 500.683 C 626.063 498.933 626.558 497.298 627.547 495.777 C 628.537 494.246 629.964 493.084 631.828 492.293 C 633.703 491.49 635.959 491.089 638.594 491.089 C 642.907 491.089 646.151 492.037 648.328 493.933 C 650.516 495.819 651.662 498.339 651.766 501.496 L 644.828 501.808 C 644.537 500.037 643.901 498.767 642.922 497.996 C 641.943 497.225 640.479 496.839 638.532 496.839 C 636.511 496.839 634.933 497.251 633.797 498.074 C 633.058 498.605 632.688 499.319 632.688 500.214 C 632.688 501.027 633.032 501.72 633.719 502.293 C 634.594 503.032 636.719 503.803 640.094 504.605 C 643.469 505.397 645.964 506.22 647.578 507.074 C 649.203 507.918 650.469 509.079 651.375 510.558 C 652.292 512.037 652.75 513.86 652.75 516.027 C 652.75 517.996 652.203 519.839 651.11 521.558 C 650.016 523.277 648.469 524.558 646.469 525.402 C 644.469 526.235 641.979 526.652 639 526.652 C 634.657 526.652 631.318 525.647 628.985 523.636 C 626.662 521.626 625.271 518.699 624.813 514.855 Z M 658.375 526.043 L 658.375 491.683 L 665.313 491.683 L 665.313 526.043 L 658.375 526.043 Z M 687.914 513.402 L 687.914 507.621 L 702.867 507.621 L 702.867 521.308 C 701.409 522.714 699.3 523.954 696.539 525.027 C 693.789 526.1 690.998 526.636 688.164 526.636 C 684.571 526.636 681.435 525.881 678.758 524.371 C 676.091 522.86 674.086 520.704 672.742 517.902 C 671.399 515.089 670.727 512.037 670.727 508.746 C 670.727 505.162 671.477 501.98 672.977 499.199 C 674.477 496.418 676.675 494.287 679.571 492.808 C 681.768 491.662 684.508 491.089 687.789 491.089 C 692.06 491.089 695.393 491.985 697.789 493.777 C 700.185 495.569 701.727 498.043 702.414 501.199 L 695.524 502.48 C 695.045 500.793 694.133 499.464 692.789 498.496 C 691.456 497.517 689.789 497.027 687.789 497.027 C 684.758 497.027 682.347 497.99 680.555 499.918 C 678.774 501.834 677.883 504.683 677.883 508.464 C 677.883 512.537 678.789 515.595 680.602 517.636 C 682.414 519.678 684.789 520.699 687.727 520.699 C 689.175 520.699 690.628 520.412 692.086 519.839 C 693.555 519.267 694.81 518.574 695.852 517.761 L 695.852 513.402 L 687.914 513.402 Z M 709.328 526.043 L 709.328 491.683 L 716.078 491.683 L 730.141 514.621 L 730.141 491.683 L 736.594 491.683 L 736.594 526.043 L 729.625 526.043 L 715.781 503.636 L 715.781 526.043 L 709.328 526.043 Z" fill-rule="nonzero" clip-path="url(#clip-1)"/>
  </g>
</svg>