<?xml version="1.0" encoding="utf-8"?>
<svg viewBox="0 0 500 500" xmlns="http://www.w3.org/2000/svg">
  <clipPath id="p.0">
    <path d="M 0 0 L 1546.559 0 L 1546.559 1035.843 L 0 1035.843 L 0 0 Z" clip-rule="nonzero"/>
  </clipPath>
  <path fill="#123456" d="M 0 0 L 500 0 L 500 500 L 0 500 Z" fill-rule="evenodd" clip-path="url(#p.0)" style=""/>
  <g transform="matrix(1.454825, 0, 0, 1.454825, -36.056427, 4.992188)" style="">
    <path fill="#ffffff" d="M 80.556 150.61 L 77.759 163.75 L 91.634 163.75 L 94.431 150.61 L 101.993 150.61 L 94.759 184.875 L 87.165 184.875 L 90.275 170.078 L 76.431 170.078 L 73.29 184.875 L 65.712 184.875 L 72.962 150.61 L 80.556 150.61 Z M 115.728 150.61 L 111.837 169.141 C 111.702 169.735 111.499 170.662 111.228 171.922 C 110.967 173.183 110.837 174.125 110.837 174.75 C 110.837 175.948 111.363 177.016 112.415 177.953 C 113.467 178.88 115.087 179.344 117.275 179.344 C 119.806 179.344 121.655 178.782 122.821 177.657 C 123.999 176.532 124.853 174.724 125.384 172.235 L 129.915 150.719 L 129.962 150.61 L 137.478 150.61 L 133.478 169.703 C 132.509 174.328 131.337 177.672 129.962 179.735 C 128.597 181.787 126.858 183.297 124.743 184.266 C 122.629 185.224 119.983 185.703 116.806 185.703 C 112.733 185.703 109.462 184.818 106.993 183.047 C 104.535 181.266 103.306 178.755 103.306 175.516 C 103.306 174.797 103.358 174.084 103.462 173.375 C 103.577 172.667 103.769 171.688 104.04 170.438 L 108.212 150.61 L 115.728 150.61 Z M 154.525 150.61 L 157.165 175.422 L 157.259 175.422 L 170.462 150.61 L 180.978 150.61 L 173.743 184.875 L 166.681 184.875 L 172.915 157.61 L 172.821 157.61 L 158.337 184.828 L 158.29 184.875 L 152.571 184.875 L 149.243 157.61 L 149.15 157.61 L 144.025 184.875 L 136.868 184.875 L 144.118 150.61 L 154.525 150.61 Z M 204.884 150.61 L 210.603 184.875 L 203.134 184.875 L 202.009 177.235 L 189.212 177.235 L 184.868 184.875 L 176.9 184.875 L 197.181 150.61 L 204.884 150.61 Z M 199.571 157.985 L 192.181 171.625 L 201.353 171.625 L 199.665 157.985 L 199.571 157.985 Z M 228.329 150.61 L 237.626 174.985 L 237.72 174.985 L 242.626 150.61 L 249.532 150.61 L 242.298 184.875 L 234.751 184.875 L 225.345 160.828 L 225.251 160.828 L 220.36 184.875 L 213.298 184.875 L 220.548 150.61 L 228.329 150.61 Z" fill-rule="nonzero" clip-path="url(#p.0)"/>
    <path fill="#ffffff" d="M 263.72 150.61 L 256.454 184.875 L 248.876 184.875 L 256.126 150.61 L 263.72 150.61 Z M 296.298 150.61 L 295.048 156.657 L 271.97 178.547 L 291.298 178.547 L 290.064 184.875 L 261.204 184.875 L 262.485 178.641 L 285.392 156.938 L 267.845 156.938 L 269.22 150.61 L 296.298 150.61 Z M 327.54 150.61 L 326.243 156.938 L 307.618 156.938 L 306.087 164.266 L 323.321 164.266 L 322.071 170.125 L 304.821 170.125 L 303.071 178.547 L 321.978 178.547 L 320.618 184.875 L 294.181 184.875 L 301.384 150.61 L 327.54 150.61 Z" fill-rule="nonzero" clip-path="url(#p.0)"/>
    <path fill="#ffffff" d="M 65.9 187.995 L 249.064 187.995 L 249.064 192.315 L 65.9 192.315 L 65.9 187.995 Z" fill-rule="nonzero" clip-path="url(#p.0)"/>
  </g>
</svg>