<?xml version="1.0" encoding="utf-8"?>
<svg viewBox="0 0 500 500" xmlns="http://www.w3.org/2000/svg">
  <clipPath id="p.0">
    <path d="M 0 -500.002 L 1546.559 -500.002 L 1546.559 535.844 L 0 535.844 L 0 -500.002 Z" clip-rule="nonzero"/>
  </clipPath>
  <path fill="#ffaa00" d="M 0 0 L 500 0 L 500 500 L 0 500 Z" fill-rule="evenodd" clip-path="url(#p.0)" style=""/>
  <clipPath id="clip-1">
    <path d="M 0 0 L 1213.378 0 L 1213.378 695.239 L 0 695.239 L 0 0 Z" clip-rule="nonzero"/>
  </clipPath>
  <g transform="matrix(1.474903, 0, 0, 1.474903, -39.289711, -492.445587)" style="">
    <path d="M 152.032 519.232 L 173.345 519.232 L 173.345 526.326 L 143.22 526.326 L 143.22 480.826 L 152.032 480.826 L 152.032 519.232 Z M 182.97 480.826 L 209.282 480.826 L 209.282 487.92 L 200.407 487.92 L 200.407 519.263 L 209.282 519.263 L 209.282 526.326 L 182.97 526.326 L 182.97 519.263 L 191.626 519.263 L 191.626 487.92 L 182.97 487.92 L 182.97 480.826 Z M 252.876 487.982 L 238.845 487.982 L 238.845 526.326 L 230.032 526.326 L 230.032 487.982 L 216.189 487.982 L 216.189 480.826 L 252.876 480.826 L 252.876 487.982 Z" fill-rule="nonzero" clip-path="url(#clip-1)" style="fill: rgb(255, 255, 255);"/>
    <path stroke="#ffffff" stroke-width="8.0" stroke-linejoin="round" stroke-linecap="butt" d="M 112.252 503.386 L 112.252 503.386 C 112.252 457.055 149.811 419.496 196.142 419.496 L 196.142 419.496 C 218.391 419.496 239.728 428.334 255.461 444.067 C 271.193 459.799 280.031 481.137 280.031 503.386 L 280.031 503.386 C 280.031 549.717 242.473 587.276 196.142 587.276 L 196.142 587.276 C 149.811 587.276 112.252 549.717 112.252 503.386 Z" fill-rule="evenodd" clip-path="url(#clip-1)" style="fill: none;"/>
  </g>
</svg>