<?xml version="1.0" encoding="utf-8"?>
<svg viewBox="0 0 500 500" xmlns="http://www.w3.org/2000/svg">
  <clipPath id="p.0">
    <path d="M -4458.28 -403.804 L 500 -403.804 L 500 632.039 L -4458.28 632.039 L -4458.28 -403.804 Z" clip-rule="nonzero"/>
  </clipPath>
  <path fill="#000000" d="M 0 0 L 1603.007 0 L 1603.007 500 L 0 500 Z" fill-rule="evenodd" clip-path="url(#p.0)" style=""/>
  <g transform="matrix(1.689095, 0, 0, 1.689095, -369.330353, 117.421242)" style="">
    <path d="M 281.84 37.222 L 281.84 60.503 L 295.762 60.503 L 295.762 65.784 L 275.543 65.784 L 275.543 37.222 L 281.84 37.222 Z" fill-rule="nonzero" clip-path="url(#p.0)" style="fill: rgb(255, 255, 255);"/>
    <path fill="#ffffff" d="M 332.91 39.534 C 335.639 39.534 337.9 40.461 339.691 42.316 C 341.483 44.17 342.379 46.555 342.379 49.472 C 342.379 52.368 341.525 54.763 339.816 56.659 C 338.108 58.555 335.827 59.503 332.973 59.503 C 331.181 59.503 329.332 58.998 327.426 57.987 C 325.519 56.977 323.316 55.159 320.816 52.534 C 319.441 53.805 318.113 54.982 316.832 56.066 C 315.551 57.149 314.228 57.982 312.863 58.566 C 311.499 59.149 310.077 59.441 308.598 59.441 C 305.827 59.441 303.566 58.524 301.816 56.691 C 300.066 54.857 299.191 52.513 299.191 49.659 C 299.191 46.743 300.066 44.347 301.816 42.472 C 303.566 40.597 305.785 39.659 308.473 39.659 C 310.389 39.659 312.28 40.201 314.144 41.284 C 316.009 42.368 318.233 44.263 320.816 46.972 C 323.795 43.868 326.129 41.852 327.816 40.925 C 329.504 39.998 331.202 39.534 332.91 39.534 Z M 323.566 49.722 C 325.879 51.93 327.728 53.388 329.113 54.097 C 330.499 54.805 331.858 55.159 333.191 55.159 C 334.712 55.159 335.931 54.654 336.848 53.644 C 337.764 52.633 338.223 51.305 338.223 49.659 C 338.223 47.972 337.764 46.592 336.848 45.519 C 335.931 44.446 334.629 43.909 332.941 43.909 C 331.837 43.909 330.618 44.284 329.285 45.034 C 327.952 45.784 326.045 47.347 323.566 49.722 Z M 303.348 49.659 C 303.348 51.284 303.827 52.607 304.785 53.628 C 305.743 54.649 307.035 55.159 308.66 55.159 C 309.973 55.159 311.426 54.701 313.019 53.784 C 314.613 52.868 316.295 51.513 318.066 49.722 C 316.17 47.888 314.431 46.472 312.848 45.472 C 311.264 44.472 309.795 43.972 308.441 43.972 C 306.92 43.972 305.691 44.524 304.754 45.628 C 303.816 46.732 303.348 48.076 303.348 49.659 Z" fill-rule="nonzero" clip-path="url(#p.0)"/>
    <path fill="#ffffff" d="M 360.91 37.222 C 363.889 37.222 366.249 38.06 367.988 39.737 C 369.728 41.414 370.598 43.633 370.598 46.394 C 370.598 49.133 369.728 51.347 367.988 53.034 C 366.249 54.711 363.889 55.55 360.91 55.55 L 354.113 55.55 L 354.113 65.784 L 347.816 65.784 L 347.816 37.222 L 360.91 37.222 Z M 359.176 50.659 C 360.967 50.659 362.301 50.321 363.176 49.644 C 364.061 48.967 364.504 47.883 364.504 46.394 C 364.504 44.935 364.077 43.857 363.223 43.159 C 362.379 42.461 361.035 42.112 359.191 42.112 L 354.113 42.112 L 354.113 50.659 L 359.176 50.659 Z M 384.828 52.425 L 384.828 57.3 L 372.797 57.3 L 372.797 52.425 L 384.828 52.425 Z M 396.008 37.222 L 396.008 65.784 L 389.711 65.784 L 389.711 37.222 L 396.008 37.222 Z M 407.758 37.222 L 419.68 56.394 L 419.758 56.394 L 419.758 37.222 L 425.633 37.222 L 425.633 65.784 L 419.367 65.784 L 407.476 46.659 L 407.398 46.659 L 407.398 65.784 L 401.508 65.784 L 401.508 37.222 L 407.758 37.222 Z M 443.953 36.55 C 447.057 36.55 449.755 37.446 452.047 39.237 C 454.338 41.019 455.656 43.482 456 46.628 L 450.015 46.628 C 449.609 45.024 448.875 43.821 447.812 43.019 C 446.76 42.217 445.479 41.816 443.969 41.816 C 441.489 41.816 439.573 42.717 438.219 44.519 C 436.875 46.321 436.203 48.691 436.203 51.628 C 436.203 54.399 436.87 56.685 438.203 58.487 C 439.536 60.279 441.458 61.175 443.969 61.175 C 445.979 61.175 447.567 60.664 448.734 59.644 C 449.901 58.623 450.578 57.081 450.765 55.019 L 444.437 55.019 L 444.437 50.331 L 456.453 50.331 L 456.453 65.784 L 452.453 65.784 L 451.812 62.566 C 450.781 63.847 449.614 64.821 448.312 65.487 C 447.01 66.144 445.557 66.472 443.953 66.472 C 441.234 66.472 438.797 65.842 436.64 64.581 C 434.495 63.321 432.838 61.545 431.672 59.253 C 430.515 56.961 429.937 54.42 429.937 51.628 C 429.937 47.222 431.219 43.607 433.781 40.784 C 436.344 37.961 439.734 36.55 443.953 36.55 Z" fill-rule="nonzero" clip-path="url(#p.0)"/>
    <path fill="#ffffff" d="M 284.074 91.182 C 286.376 91.182 288.319 91.927 289.902 93.416 C 291.486 94.895 292.277 96.781 292.277 99.072 C 292.277 100.874 291.902 102.364 291.152 103.541 C 290.402 104.718 289.267 105.614 287.746 106.229 L 287.746 106.307 C 289.079 106.661 290.105 107.463 290.824 108.713 C 291.543 109.963 291.933 111.874 291.996 114.447 C 292.048 117.031 292.418 118.796 293.105 119.744 L 286.824 119.744 C 286.459 118.817 286.209 117.317 286.074 115.244 C 285.887 112.432 285.418 110.619 284.668 109.807 C 283.918 108.994 282.767 108.588 281.215 108.588 L 274.793 108.588 L 274.793 119.744 L 268.496 119.744 L 268.496 91.182 L 284.074 91.182 Z M 281.808 104.104 C 283.121 104.104 284.142 103.786 284.871 103.151 C 285.61 102.505 285.98 101.458 285.98 100.01 C 285.98 98.656 285.626 97.661 284.918 97.026 C 284.209 96.39 283.173 96.072 281.808 96.072 L 274.793 96.072 L 274.793 104.104 L 281.808 104.104 Z M 318.758 91.182 L 318.758 96.463 L 303.68 96.463 L 303.68 102.572 L 317.508 102.572 L 317.508 107.463 L 303.68 107.463 L 303.68 114.463 L 319.07 114.463 L 319.07 119.744 L 297.383 119.744 L 297.383 91.182 L 318.758 91.182 Z M 336.113 90.51 C 339.363 90.51 342.129 91.427 344.41 93.26 C 346.691 95.083 348.03 97.588 348.426 100.776 L 342.347 100.776 C 342.077 99.276 341.332 98.067 340.113 97.151 C 338.905 96.234 337.566 95.776 336.097 95.776 C 333.65 95.776 331.743 96.671 330.379 98.463 C 329.025 100.255 328.347 102.63 328.347 105.588 C 328.347 108.411 329.019 110.708 330.363 112.479 C 331.717 114.249 333.634 115.135 336.113 115.135 C 337.926 115.135 339.389 114.578 340.504 113.463 C 341.629 112.348 342.321 110.776 342.582 108.744 L 348.676 108.744 C 348.311 112.38 346.993 115.239 344.722 117.322 C 342.452 119.395 339.582 120.432 336.113 120.432 C 333.374 120.432 330.931 119.802 328.785 118.541 C 326.639 117.281 324.983 115.505 323.816 113.213 C 322.66 110.921 322.082 108.38 322.082 105.588 C 322.082 101.192 323.363 97.583 325.926 94.76 C 328.488 91.927 331.884 90.51 336.113 90.51 Z M 365.762 90.51 C 370.012 90.51 373.413 91.932 375.965 94.776 C 378.527 97.619 379.808 101.223 379.808 105.588 C 379.808 109.838 378.522 113.374 375.949 116.197 C 373.376 119.02 369.98 120.432 365.762 120.432 C 363.022 120.432 360.579 119.802 358.433 118.541 C 356.288 117.27 354.631 115.494 353.465 113.213 C 352.308 110.921 351.73 108.38 351.73 105.588 C 351.73 101.182 353.012 97.567 355.574 94.744 C 358.147 91.921 361.543 90.51 365.762 90.51 Z M 357.996 105.588 C 357.996 108.401 358.668 110.697 360.012 112.479 C 361.366 114.249 363.282 115.135 365.762 115.135 C 368.23 115.135 370.142 114.26 371.496 112.51 C 372.85 110.76 373.527 108.453 373.527 105.588 C 373.527 102.578 372.84 100.192 371.465 98.432 C 370.09 96.661 368.178 95.776 365.73 95.776 C 363.293 95.776 361.392 96.671 360.027 98.463 C 358.673 100.244 357.996 102.619 357.996 105.588 Z M 399.64 91.182 C 401.943 91.182 403.885 91.927 405.469 93.416 C 407.052 94.895 407.844 96.781 407.844 99.072 C 407.844 100.874 407.469 102.364 406.719 103.541 C 405.969 104.718 404.833 105.614 403.312 106.229 L 403.312 106.307 C 404.646 106.661 405.672 107.463 406.39 108.713 C 407.109 109.963 407.5 111.874 407.562 114.447 C 407.614 117.031 407.984 118.796 408.672 119.744 L 402.39 119.744 C 402.026 118.817 401.776 117.317 401.64 115.244 C 401.453 112.432 400.984 110.619 400.234 109.807 C 399.484 108.994 398.333 108.588 396.781 108.588 L 390.359 108.588 L 390.359 119.744 L 384.062 119.744 L 384.062 91.182 L 399.64 91.182 Z M 397.375 104.104 C 398.687 104.104 399.708 103.786 400.437 103.151 C 401.177 102.505 401.547 101.458 401.547 100.01 C 401.547 98.656 401.193 97.661 400.484 97.026 C 399.776 96.39 398.739 96.072 397.375 96.072 L 390.359 96.072 L 390.359 104.104 L 397.375 104.104 Z M 425.48 91.182 C 429.282 91.182 432.36 92.427 434.715 94.916 C 437.069 97.395 438.246 100.859 438.246 105.307 C 438.246 109.765 437.095 113.286 434.793 115.869 C 432.491 118.453 429.387 119.744 425.48 119.744 L 412.949 119.744 L 412.949 91.182 L 425.48 91.182 Z M 424.98 114.463 C 426.991 114.463 428.657 113.744 429.98 112.307 C 431.303 110.869 431.965 108.723 431.965 105.869 C 431.965 102.578 431.272 100.187 429.887 98.697 C 428.512 97.208 426.512 96.463 423.887 96.463 L 419.246 96.463 L 419.246 114.463 L 424.98 114.463 Z M 452.441 90.51 C 455.9 90.51 458.67 91.312 460.754 92.916 C 462.837 94.51 463.879 96.77 463.879 99.697 L 457.801 99.697 C 457.707 98.27 457.217 97.197 456.332 96.479 C 455.446 95.749 454.066 95.385 452.191 95.385 C 450.92 95.385 449.873 95.666 449.051 96.229 C 448.238 96.791 447.832 97.593 447.832 98.635 C 447.832 99.343 447.998 99.874 448.332 100.229 C 448.676 100.583 449.373 100.953 450.426 101.338 C 451.478 101.723 453.764 102.333 457.285 103.166 C 459.66 103.739 461.509 104.708 462.832 106.072 C 464.165 107.437 464.832 109.166 464.832 111.26 C 464.832 114.02 463.795 116.239 461.722 117.916 C 459.65 119.593 456.733 120.432 452.972 120.432 C 449.379 120.432 446.446 119.546 444.176 117.776 C 441.915 116.005 440.785 113.557 440.785 110.432 L 440.785 110.276 L 446.863 110.276 C 446.884 112.046 447.472 113.369 448.629 114.244 C 449.795 115.109 451.316 115.541 453.191 115.541 C 454.879 115.541 456.228 115.234 457.238 114.619 C 458.248 113.994 458.754 113.119 458.754 111.994 C 458.754 111.067 458.363 110.307 457.582 109.713 C 456.811 109.119 455.577 108.609 453.879 108.182 C 451.691 107.682 449.702 107.156 447.91 106.604 C 446.129 106.052 444.655 105.156 443.488 103.916 C 442.321 102.666 441.738 101.072 441.738 99.135 C 441.738 96.572 442.764 94.494 444.816 92.901 C 446.868 91.307 449.41 90.51 452.441 90.51 Z" fill-rule="nonzero" clip-path="url(#p.0)"/>
  </g>
</svg>