<?xml version="1.0" encoding="utf-8"?>
<svg viewBox="0 0 500 500" xmlns="http://www.w3.org/2000/svg">
  <clipPath id="p.0">
    <path d="M -1000.005 -500.002 L 546.554 -500.002 L 546.554 535.844 L -1000.005 535.844 L -1000.005 -500.002 Z" clip-rule="nonzero"/>
  </clipPath>
  <path d="M 0 0 L 500 0 L 500 500 L 0 500 Z" fill-rule="evenodd" clip-path="url(#p.0)" style="fill: rgb(255, 0, 0);"/>
  <clipPath id="clip-1">
    <path d="M 0 0 L 1213.378 0 L 1213.378 695.239 L 0 695.239 L 0 0 Z" clip-rule="nonzero"/>
  </clipPath>
  <g transform="matrix(1.32892, 0, 0, 1.32892, -1060.014771, -402.558838)" style="">
    <path fill="#ffffff" d="M 854.446 487.826 L 845.508 487.826 L 843.852 449.545 L 836.571 487.826 L 828.071 487.826 L 837.633 442.013 L 851.071 442.013 L 852.477 474.107 L 868.102 442.013 L 881.696 442.013 L 872.102 487.826 L 863.508 487.826 L 872.539 449.826 L 854.446 487.826 Z M 891.008 442.013 L 900.414 442.013 L 895.227 466.888 L 893.946 473.013 C 893.862 473.534 893.821 474.024 893.821 474.482 C 893.821 476.295 894.482 477.789 895.805 478.966 C 897.128 480.144 899.05 480.732 901.571 480.732 C 903.842 480.732 905.717 480.305 907.196 479.451 C 908.675 478.597 909.821 477.326 910.633 475.638 C 911.446 473.951 912.269 471.086 913.102 467.045 L 918.352 442.013 L 927.758 442.013 L 922.539 467.076 C 921.435 472.347 920.164 476.378 918.727 479.17 C 917.289 481.961 915.112 484.232 912.196 485.982 C 909.279 487.732 905.592 488.607 901.133 488.607 C 895.8 488.607 891.717 487.3 888.883 484.685 C 886.05 482.071 884.633 478.711 884.633 474.607 C 884.633 473.753 884.706 472.826 884.852 471.826 C 884.935 471.159 885.3 469.263 885.946 466.138 L 891.008 442.013 Z M 927.883 487.826 L 937.477 442.013 L 946.883 442.013 L 938.914 480.17 L 962.227 480.17 L 960.633 487.826 L 927.883 487.826 Z M 981.914 487.826 L 972.477 487.826 L 980.477 449.67 L 967.039 449.67 L 968.633 442.013 L 1004.727 442.013 L 1003.133 449.67 L 989.883 449.67 L 981.914 487.826 Z M 1000.664 487.826 L 1010.258 442.013 L 1019.664 442.013 L 1010.102 487.826 L 1000.664 487.826 Z M 1028.258 487.826 L 1018.821 487.826 L 1028.414 442.013 L 1047.039 442.013 C 1050.352 442.013 1052.972 442.404 1054.899 443.185 C 1056.826 443.966 1058.352 445.258 1059.477 447.06 C 1060.602 448.862 1061.164 451.013 1061.164 453.513 C 1061.164 455.826 1060.717 458.076 1059.821 460.263 C 1058.925 462.451 1057.826 464.201 1056.524 465.513 C 1055.222 466.826 1053.821 467.821 1052.321 468.498 C 1050.821 469.175 1048.8 469.69 1046.258 470.045 C 1044.779 470.253 1042.008 470.357 1037.946 470.357 L 1031.914 470.357 L 1028.258 487.826 Z M 1033.477 462.763 L 1036.383 462.763 C 1041.362 462.763 1044.685 462.451 1046.352 461.826 C 1048.019 461.201 1049.331 460.201 1050.289 458.826 C 1051.248 457.451 1051.727 455.94 1051.727 454.295 C 1051.727 453.19 1051.482 452.284 1050.993 451.576 C 1050.503 450.868 1049.815 450.352 1048.93 450.029 C 1048.045 449.706 1046.071 449.545 1043.008 449.545 L 1036.258 449.545 L 1033.477 462.763 Z M 1061.789 487.826 L 1071.383 442.013 L 1080.789 442.013 L 1072.821 480.17 L 1096.133 480.17 L 1094.539 487.826 L 1061.789 487.826 Z M 1118.914 487.826 L 1109.508 487.826 L 1113.227 469.982 L 1100.602 442.013 L 1110.633 442.013 L 1116.321 454.951 C 1117.675 458.055 1118.581 460.295 1119.039 461.67 C 1119.81 460.315 1120.706 458.878 1121.727 457.357 L 1126.071 451.295 L 1132.539 442.013 L 1143.477 442.013 L 1122.477 470.857 L 1118.914 487.826 Z" fill-rule="nonzero" clip-path="url(#clip-1)"/>
    <path fill="#ffffff" d="M 975.914 540.076 L 971.196 536.42 C 972.696 534.732 974.258 533.117 975.883 531.576 C 976.529 530.951 976.935 530.555 977.102 530.388 C 976.581 530.305 975.091 529.961 972.633 529.357 C 970.862 528.92 969.696 528.597 969.133 528.388 L 970.977 522.888 C 973.706 523.992 976.144 525.211 978.289 526.545 C 977.789 523.149 977.539 520.378 977.539 518.232 L 983.102 518.232 C 983.102 519.753 982.821 522.545 982.258 526.607 C 982.675 526.44 983.571 526.034 984.946 525.388 C 986.821 524.534 988.55 523.805 990.133 523.201 L 991.789 528.857 C 989.477 529.378 986.8 529.888 983.758 530.388 L 987.508 534.607 C 988.258 535.461 988.852 536.159 989.289 536.701 L 984.508 539.857 L 980.289 532.888 C 979.019 535.138 977.56 537.534 975.914 540.076 Z" fill-rule="nonzero" clip-path="url(#clip-1)"/>
  </g>
</svg>